<svg width="100%" viewBox="0 0 680 808" role="img" xmlns="http://www.w3.org/2000/svg"><title>창원 CECO 제2전시장 배치도 최종</title><desc>통로 좌우3 중앙5 입구4 뒤3, 추가가능 26부스</desc><defs><marker id="ar2" viewBox="0 0 10 10" refX="5" refY="5" markerWidth="7" markerHeight="7" orient="auto"><path d="M2 2L8 5L2 8" fill="none" stroke="context-stroke" stroke-width="1.3"/></marker></defs>
<rect x="70" y="70" width="540" height="700" fill="none" stroke="#9aa0a6" stroke-width="2"/>
<rect x="90" y="90" width="80" height="80" rx="2" class="c-blue" />
<text x="130" y="136.0" text-anchor="middle" class="th" style="font-size:13px">가구1</text>
<rect x="90" y="170" width="80" height="80" rx="2" class="c-blue" />
<text x="130" y="216.0" text-anchor="middle" class="th" style="font-size:13px">가구2</text>
<rect x="90" y="250" width="80" height="80" rx="2" class="c-blue" />
<text x="130" y="296.0" text-anchor="middle" class="th" style="font-size:13px">가전1</text>
<rect x="90" y="330" width="80" height="80" rx="2" class="c-blue" />
<text x="130" y="376.0" text-anchor="middle" class="th" style="font-size:13px">가구3</text>
<rect x="90" y="410" width="80" height="80" rx="2" class="c-blue" />
<text x="130" y="456.0" text-anchor="middle" class="th" style="font-size:13px">가구4</text>
<rect x="90" y="490" width="80" height="80" rx="2" class="c-blue" />
<text x="130" y="536.0" text-anchor="middle" class="th" style="font-size:13px">가구5</text>
<rect x="90" y="570" width="80" height="80" rx="2" class="c-blue" />
<text x="130" y="616.0" text-anchor="middle" class="th" style="font-size:13px">가구6</text>
<rect x="90" y="650" width="80" height="80" rx="2" class="c-blue" />
<text x="130" y="696.0" text-anchor="middle" class="th" style="font-size:13px">가구7</text>
<rect x="510" y="90" width="80" height="80" rx="2" class="c-blue" />
<text x="550" y="136.0" text-anchor="middle" class="th" style="font-size:13px">가구8</text>
<rect x="510" y="170" width="80" height="80" rx="2" class="c-blue" />
<text x="550" y="216.0" text-anchor="middle" class="th" style="font-size:13px">가전2</text>
<rect x="510" y="250" width="80" height="80" rx="2" class="c-blue" />
<text x="550" y="296.0" text-anchor="middle" class="th" style="font-size:13px">가구9</text>
<rect x="510" y="330" width="80" height="80" rx="2" class="c-blue" />
<text x="550" y="376.0" text-anchor="middle" class="th" style="font-size:13px">가구10</text>
<rect x="510" y="410" width="80" height="80" rx="2" class="c-blue" />
<text x="550" y="456.0" text-anchor="middle" class="th" style="font-size:13px">가구11</text>
<rect x="510" y="490" width="80" height="80" rx="2" class="c-blue" />
<text x="550" y="536.0" text-anchor="middle" class="th" style="font-size:13px">가전3</text>
<rect x="510" y="570" width="80" height="80" rx="2" class="c-blue" />
<text x="550" y="616.0" text-anchor="middle" class="th" style="font-size:13px">가구12</text>
<rect x="510" y="650" width="80" height="80" rx="2" class="c-amber" />
<text x="550" y="696.0" text-anchor="middle" class="th" style="font-size:13px">안마1</text>
<rect x="200" y="90" width="80" height="30" rx="2" class="c-amber" />
<text x="240" y="109.0" text-anchor="middle" class="ts" style="font-size:9px">조명1·휴젠1</text>
<rect x="400" y="90" width="80" height="30" rx="2" class="c-amber" />
<text x="440" y="109.0" text-anchor="middle" class="ts" style="font-size:8.5px">렌탈1·통신1·2</text>
<rect x="280" y="90" width="120" height="30" fill="none" stroke="#C9A46A" stroke-width="1.5" stroke-dasharray="5 3"/>
<text x="340" y="109.0" text-anchor="middle" class="th">입 구</text>
<rect x="200" y="160.0" width="30" height="70" rx="2" class="c-teal" />
<text x="215.0" y="199.0" text-anchor="middle" class="th" style="font-size:9px">커튼1</text>
<rect x="420" y="265.0" width="30" height="70" rx="2" class="c-teal" />
<text x="435.0" y="304.0" text-anchor="middle" class="th" style="font-size:9px">커튼2</text>
<rect x="230" y="370.0" width="30" height="70" rx="2" class="c-teal" />
<text x="245.0" y="409.0" text-anchor="middle" class="th" style="font-size:9px">커튼3</text>
<rect x="450" y="475.0" width="30" height="70" rx="2" class="c-teal" />
<text x="465.0" y="514.0" text-anchor="middle" class="th" style="font-size:9px">커튼4</text>
<rect x="200" y="545.0" width="30" height="70" rx="2" class="c-teal" />
<text x="215.0" y="584.0" text-anchor="middle" class="th" style="font-size:9px">커튼5</text>
<rect x="200" y="230.0" width="30" height="35.0" rx="2" class="c-gray" />
<text x="215.0" y="252.5" text-anchor="middle" class="ts" style="font-size:8.3px">줄눈1</text>
<rect x="450" y="580.0" width="30" height="35.0" rx="2" class="c-gray" />
<text x="465.0" y="602.5" text-anchor="middle" class="ts" style="font-size:8.3px">줄눈2</text>
<rect x="200" y="440.0" width="30" height="35.0" rx="2" class="c-gray" />
<text x="215.0" y="462.5" text-anchor="middle" class="ts" style="font-size:8.3px">줄눈3</text>
<rect x="450" y="335.0" width="30" height="35.0" rx="2" class="c-gray" />
<text x="465.0" y="357.5" text-anchor="middle" class="ts" style="font-size:8.3px">줄눈4</text>
<rect x="450" y="160.0" width="30" height="35.0" rx="2" class="c-gray" />
<text x="465.0" y="182.5" text-anchor="middle" class="ts" style="font-size:8.3px">줄눈5</text>
<rect x="200" y="335.0" width="30" height="35.0" rx="2" class="c-gray" />
<text x="215.0" y="357.5" text-anchor="middle" class="ts" style="font-size:8.3px">줄눈6</text>
<rect x="450" y="440.0" width="30" height="35.0" rx="2" class="c-gray" />
<text x="465.0" y="462.5" text-anchor="middle" class="ts" style="font-size:8.3px">줄눈7</text>
<rect x="230" y="545.0" width="30" height="35.0" rx="2" class="c-gray" />
<text x="245.0" y="567.5" text-anchor="middle" class="ts" style="font-size:8.3px">줄눈8</text>
<rect x="230" y="160.0" width="30" height="35.0" rx="2" class="c-gray" />
<text x="245.0" y="182.5" text-anchor="middle" class="ts" style="font-size:8.3px">청소1</text>
<rect x="420" y="580.0" width="30" height="35.0" rx="2" class="c-gray" />
<text x="435.0" y="602.5" text-anchor="middle" class="ts" style="font-size:8.3px">청소2</text>
<rect x="200" y="370.0" width="30" height="35.0" rx="2" class="c-gray" />
<text x="215.0" y="392.5" text-anchor="middle" class="ts" style="font-size:8.3px">청소3</text>
<rect x="450" y="300.0" width="30" height="35.0" rx="2" class="c-gray" />
<text x="465.0" y="322.5" text-anchor="middle" class="ts" style="font-size:8.3px">청소4</text>
<rect x="200" y="510.0" width="30" height="35.0" rx="2" class="c-gray" />
<text x="215.0" y="532.5" text-anchor="middle" class="ts" style="font-size:8.3px">청소5</text>
<rect x="420" y="440.0" width="30" height="35.0" rx="2" class="c-gray" />
<text x="435.0" y="462.5" text-anchor="middle" class="ts" style="font-size:8.3px">청소6</text>
<rect x="200" y="265.0" width="30" height="35.0" rx="2" class="c-gray" />
<text x="215.0" y="287.5" text-anchor="middle" class="ts" style="font-size:8.3px">청소7</text>
<rect x="450" y="195.0" width="30" height="35.0" rx="2" class="c-gray" />
<text x="465.0" y="217.5" text-anchor="middle" class="ts" style="font-size:8.3px">청소8</text>
<rect x="420" y="510.0" width="30" height="35.0" rx="2" class="c-gray" />
<text x="435.0" y="532.5" text-anchor="middle" class="ts" style="font-size:8.3px">코팅1</text>
<rect x="420" y="160.0" width="30" height="35.0" rx="2" class="c-gray" />
<text x="435.0" y="182.5" text-anchor="middle" class="ts" style="font-size:8.3px">코팅2</text>
<rect x="230" y="335.0" width="30" height="35.0" rx="2" class="c-gray" />
<text x="245.0" y="357.5" text-anchor="middle" class="ts" style="font-size:8.3px">코팅3</text>
<rect x="450" y="265.0" width="30" height="35.0" rx="2" class="c-gray" />
<text x="465.0" y="287.5" text-anchor="middle" class="ts" style="font-size:8.3px">코팅4</text>
<rect x="230" y="475.0" width="30" height="35.0" rx="2" class="c-gray" />
<text x="245.0" y="497.5" text-anchor="middle" class="ts" style="font-size:8.3px">탄성1</text>
<rect x="420" y="195.0" width="30" height="35.0" rx="2" class="c-gray" />
<text x="435.0" y="217.5" text-anchor="middle" class="ts" style="font-size:8.3px">탄성2</text>
<rect x="420" y="335.0" width="30" height="35.0" rx="2" class="c-gray" />
<text x="435.0" y="357.5" text-anchor="middle" class="ts" style="font-size:8.3px">탄성3</text>
<rect x="450" y="545.0" width="30" height="35.0" rx="2" class="c-gray" />
<text x="465.0" y="567.5" text-anchor="middle" class="ts" style="font-size:8.3px">탄성4</text>
<rect x="200" y="300.0" width="30" height="35.0" rx="2" class="c-gray" />
<text x="215.0" y="322.5" text-anchor="middle" class="ts" style="font-size:8.3px">필름1</text>
<rect x="230" y="580.0" width="30" height="35.0" rx="2" class="c-gray" />
<text x="245.0" y="602.5" text-anchor="middle" class="ts" style="font-size:8.3px">필름2</text>
<rect x="450" y="405.0" width="30" height="35.0" rx="2" class="c-gray" />
<text x="465.0" y="427.5" text-anchor="middle" class="ts" style="font-size:8.3px">필름3</text>
<rect x="200" y="405.0" width="30" height="35.0" rx="2" class="c-gray" />
<text x="215.0" y="427.5" text-anchor="middle" class="ts" style="font-size:8.3px">새집1</text>
<rect x="450" y="230.0" width="30" height="35.0" rx="2" class="c-gray" />
<text x="465.0" y="252.5" text-anchor="middle" class="ts" style="font-size:8.3px">새집2</text>
<rect x="420" y="545.0" width="30" height="35.0" rx="2" class="c-gray" />
<text x="435.0" y="567.5" text-anchor="middle" class="ts" style="font-size:8.3px">새집3</text>
<rect x="230" y="195.0" width="30" height="35.0" rx="2" class="c-gray" />
<text x="245.0" y="217.5" text-anchor="middle" class="ts" style="font-size:8.3px">매트1</text>
<rect x="230" y="510.0" width="30" height="35.0" rx="2" class="c-gray" />
<text x="245.0" y="532.5" text-anchor="middle" class="ts" style="font-size:8.3px">매트2</text>
<rect x="450" y="370.0" width="30" height="35.0" rx="2" class="c-gray" />
<text x="465.0" y="392.5" text-anchor="middle" class="ts" style="font-size:8.3px">매트3</text>
<rect x="420" y="475.0" width="30" height="35.0" rx="2" class="c-gray" />
<text x="435.0" y="497.5" text-anchor="middle" class="ts" style="font-size:8.3px">벽걸1</text>
<rect x="230" y="230.0" width="30" height="35.0" rx="2" class="c-gray" />
<text x="245.0" y="252.5" text-anchor="middle" class="ts" style="font-size:8.3px">벽걸2</text>
<rect x="420" y="370.0" width="30" height="35.0" rx="2" class="c-gray" />
<text x="435.0" y="392.5" text-anchor="middle" class="ts" style="font-size:8.3px">벽걸3</text>
<rect x="200" y="475.0" width="30" height="35.0" rx="2" class="c-gray" />
<text x="215.0" y="497.5" text-anchor="middle" class="ts" style="font-size:7.5px">홈케어1</text>
<rect x="230" y="265.0" width="30" height="35.0" rx="2" class="c-gray" />
<text x="245.0" y="287.5" text-anchor="middle" class="ts" style="font-size:8.3px">안전1</text>
<rect x="230" y="300.0" width="30" height="35.0" rx="2" class="c-gray" />
<text x="245.0" y="322.5" text-anchor="middle" class="ts" style="font-size:8.3px">이사1</text>
<rect x="230" y="440.0" width="30" height="35.0" rx="2" class="c-gray" />
<text x="245.0" y="462.5" text-anchor="middle" class="ts" style="font-size:8.3px">선반1</text>
<rect x="420" y="230.0" width="30" height="35.0" rx="2" class="c-gray" />
<text x="435.0" y="252.5" text-anchor="middle" class="ts" style="font-size:8.3px">에어1</text>
<rect x="420" y="405.0" width="30" height="35.0" rx="2" class="c-gray" />
<text x="435.0" y="427.5" text-anchor="middle" class="ts" style="font-size:8.3px">청정1</text>
<rect x="200" y="650" width="100" height="70" rx="2" class="c-green" />
<text x="250" y="690" text-anchor="middle" class="th">인테1</text>
<rect x="380" y="650" width="100" height="70" rx="2" class="c-green" />
<text x="430" y="690" text-anchor="middle" class="th">인테2</text>
<text x="340" y="690" text-anchor="middle" class="ts">띄움 8m</text>
<rect x="260" y="160" width="55.0" height="455.0" rx="2" fill="none" stroke="#e07a3c" stroke-width="1.3" stroke-dasharray="6 4"/>
<rect x="365.0" y="160" width="55.0" height="455.0" rx="2" fill="none" stroke="#e07a3c" stroke-width="1.3" stroke-dasharray="6 4"/>
<text x="340" y="350" text-anchor="middle" class="th" style="font-size:10px">추가 가능</text>
<text x="340" y="380" text-anchor="middle" class="th" style="font-size:11px">약 26부스</text>
<text x="340" y="410" text-anchor="middle" class="ts" style="font-size:8.5px">(중앙 2열)</text>
<text x="185.0" y="470" text-anchor="middle" class="ts" transform="rotate(-90 185.0 470)" style="font-size:8.5px">좌통로 3m</text>
<text x="495.0" y="470" text-anchor="middle" class="ts" transform="rotate(-90 495.0 470)" style="font-size:8.5px">우통로 3m</text>
<text x="340" y="570" text-anchor="middle" class="ts" style="font-size:8.5px">중앙통로 5m</text>
<text x="340" y="145" text-anchor="middle" class="ts" style="font-size:8.5px">입구통로 4m</text>
<text x="340" y="635.0" text-anchor="middle" class="ts" style="font-size:8.5px">뒤통로 3m</text>
<line x1="70" y1="790" x2="610" y2="790" stroke="#9aa0a6" stroke-width="1" marker-start="url(#ar2)" marker-end="url(#ar2)"/>
<text x="340" y="794.0" text-anchor="middle" class="t">54 m</text>
<line x1="44" y1="70" x2="44" y2="770" stroke="#9aa0a6" stroke-width="1" marker-start="url(#ar2)" marker-end="url(#ar2)"/>
<text x="38" y="420" text-anchor="middle" class="t" transform="rotate(-90 38 420)">70 m</text>
</svg>