<svg xmlns="http://www.w3.org/2000/svg" viewBox="0 0 640 400" width="640" height="400" font-family="Pretendard, 'Malgun Gothic', 'Apple SD Gothic Neo', sans-serif">
<defs>
  <filter id="glow" filterUnits="userSpaceOnUse" x="-200" y="-200" width="2400" height="1400">
    <feGaussianBlur stdDeviation="3.2" result="b"/>
    <feMerge><feMergeNode in="b"/><feMergeNode in="b"/><feMergeNode in="SourceGraphic"/></feMerge>
  </filter>
  <filter id="soft" filterUnits="userSpaceOnUse" x="-200" y="-200" width="2400" height="1400">
    <feGaussianBlur stdDeviation="9"/>
  </filter>
  <radialGradient id="bulb" cx="50%" cy="50%" r="50%">
    <stop offset="0" stop-color="#FFF6DD" stop-opacity="1"/>
    <stop offset=".35" stop-color="#FFE3AA" stop-opacity=".85"/>
    <stop offset="1" stop-color="#F0CF8E" stop-opacity="0"/>
  </radialGradient>
  <linearGradient id="beamUp" x1="0" y1="1" x2="0" y2="0">
    <stop offset="0" stop-color="#FFE3AA" stop-opacity=".55"/>
    <stop offset="1" stop-color="#F0CF8E" stop-opacity="0"/>
  </linearGradient>
  
  <linearGradient id="washDown" x1="0" y1="0" x2="0" y2="1">
    <stop offset="0" stop-color="#F0CF8E" stop-opacity=".26"/>
    <stop offset="1" stop-color="#F0CF8E" stop-opacity="0"/>
  </linearGradient>
  <linearGradient id="washUp" x1="0" y1="1" x2="0" y2="0">
    <stop offset="0" stop-color="#FFE3AA" stop-opacity=".30"/>
    <stop offset="1" stop-color="#FFE3AA" stop-opacity="0"/>
  </linearGradient>
  <pattern id="grid" width="16" height="16" patternUnits="userSpaceOnUse">
    <path d="M16 0 L0 0 0 16" fill="none" stroke="#15304c" stroke-width=".6"/>
  </pattern>
  <pattern id="gridL" width="80" height="80" patternUnits="userSpaceOnUse">
    <path d="M80 0 L0 0 0 80" fill="none" stroke="#1d3d5e" stroke-width=".9"/>
  </pattern></defs>
<rect width="640" height="400" fill="#0a1a2d"/>
<rect width="640" height="400" fill="url(#grid)"/>
<rect width="640" height="400" fill="url(#gridL)"/>
<path d="M26 40 L392 30 L404 368 L20 372 Z" fill="#0c2034" fill-opacity=".6" stroke="#C8A86A" stroke-width="1.2" stroke-dasharray="7 4"/>
<path d="M40 300 C120 250 150 330 230 280 S330 190 390 210" fill="none" stroke="#1d3a58" stroke-width="12" stroke-linecap="round"/>
<path d="M40 300 C120 250 150 330 230 280 S330 190 390 210" fill="none" stroke="#35587a" stroke-width="1" stroke-dasharray="3 5"/>
<path d="M90 60 C110 140 170 150 205 205 S230 330 250 362" fill="none" stroke="#1d3a58" stroke-width="12" stroke-linecap="round"/>
<path d="M90 60 C110 140 170 150 205 205 S230 330 250 362" fill="none" stroke="#35587a" stroke-width="1" stroke-dasharray="3 5"/>
<path d="M30 170 C120 180 250 120 395 120" fill="none" stroke="#1d3a58" stroke-width="12" stroke-linecap="round"/>
<path d="M30 170 C120 180 250 120 395 120" fill="none" stroke="#35587a" stroke-width="1" stroke-dasharray="3 5"/>
<circle cx="208" cy="208" r="34" fill="#102a44" stroke="#3d5f82" stroke-width="1.2"/>
<circle cx="208" cy="208" r="14" fill="none" stroke="#F0CF8E" stroke-width="1.4" stroke-dasharray="2 3"/>
<g transform="rotate(-8 106.0 93.0)"><rect x="60" y="78" width="92" height="30" fill="#142c46" stroke="#557493" stroke-width="1.2"/><line x1="60" y1="78" x2="152" y2="78" stroke="#F0CF8E" stroke-width="2" filter="url(#glow)"/><text x="106.0" y="97.0" font-size="11" font-weight="700" fill="#9fb3c8" text-anchor="middle">101동</text></g>
<g transform="rotate(6 298.0 73.0)"><rect x="250" y="58" width="96" height="30" fill="#142c46" stroke="#557493" stroke-width="1.2"/><line x1="250" y1="58" x2="346" y2="58" stroke="#F0CF8E" stroke-width="2" filter="url(#glow)"/><text x="298.0" y="77.0" font-size="11" font-weight="700" fill="#9fb3c8" text-anchor="middle">102동</text></g>
<g transform="rotate(-14 336.0 265.0)"><rect x="292" y="250" width="88" height="30" fill="#142c46" stroke="#557493" stroke-width="1.2"/><line x1="292" y1="250" x2="380" y2="250" stroke="#F0CF8E" stroke-width="2" filter="url(#glow)"/><text x="336.0" y="269.0" font-size="11" font-weight="700" fill="#9fb3c8" text-anchor="middle">103동</text></g>
<g transform="rotate(4 108.0 332.0)"><rect x="58" y="318" width="100" height="28" fill="#142c46" stroke="#557493" stroke-width="1.2"/><line x1="58" y1="318" x2="158" y2="318" stroke="#F0CF8E" stroke-width="2" filter="url(#glow)"/><text x="108.0" y="336.0" font-size="11" font-weight="700" fill="#9fb3c8" text-anchor="middle">104동</text></g>
<circle cx="170" cy="100" r="9" fill="#0f2a40" stroke="#3f6384" stroke-width="1"/><circle cx="170" cy="100" r="2.2" fill="#F0CF8E" filter="url(#glow)"/>
<circle cx="340" cy="170" r="9" fill="#0f2a40" stroke="#3f6384" stroke-width="1"/><circle cx="340" cy="170" r="2.2" fill="#F0CF8E" filter="url(#glow)"/>
<circle cx="150" cy="250" r="9" fill="#0f2a40" stroke="#3f6384" stroke-width="1"/><circle cx="150" cy="250" r="2.2" fill="#F0CF8E" filter="url(#glow)"/>
<circle cx="330" cy="330" r="9" fill="#0f2a40" stroke="#3f6384" stroke-width="1"/><circle cx="330" cy="330" r="2.2" fill="#F0CF8E" filter="url(#glow)"/>
<circle cx="110" cy="210" r="9" fill="#0f2a40" stroke="#3f6384" stroke-width="1"/><circle cx="110" cy="210" r="2.2" fill="#F0CF8E" filter="url(#glow)"/>
<circle cx="260" cy="150" r="9" fill="#0f2a40" stroke="#3f6384" stroke-width="1"/><circle cx="260" cy="150" r="2.2" fill="#F0CF8E" filter="url(#glow)"/>
<circle cx="360" cy="80" r="9" fill="#0f2a40" stroke="#3f6384" stroke-width="1"/><circle cx="360" cy="80" r="2.2" fill="#F0CF8E" filter="url(#glow)"/>
<circle cx="70" cy="290" r="22" fill="#F0CF8E" fill-opacity=".05" stroke="#F0CF8E" stroke-opacity=".35" stroke-width=".8" stroke-dasharray="3 3"/>
<circle cx="70" cy="290" r="12" fill="none" stroke="#F0CF8E" stroke-opacity=".5" stroke-width=".8"/>
<circle cx="70" cy="290" r="3.4" fill="#FFE3AA" filter="url(#glow)"/>
<circle cx="140" cy="272" r="22" fill="#F0CF8E" fill-opacity=".05" stroke="#F0CF8E" stroke-opacity=".35" stroke-width=".8" stroke-dasharray="3 3"/>
<circle cx="140" cy="272" r="12" fill="none" stroke="#F0CF8E" stroke-opacity=".5" stroke-width=".8"/>
<circle cx="140" cy="272" r="3.4" fill="#FFE3AA" filter="url(#glow)"/>
<circle cx="230" cy="280" r="22" fill="#F0CF8E" fill-opacity=".05" stroke="#F0CF8E" stroke-opacity=".35" stroke-width=".8" stroke-dasharray="3 3"/>
<circle cx="230" cy="280" r="12" fill="none" stroke="#F0CF8E" stroke-opacity=".5" stroke-width=".8"/>
<circle cx="230" cy="280" r="3.4" fill="#FFE3AA" filter="url(#glow)"/>
<circle cx="300" cy="222" r="22" fill="#F0CF8E" fill-opacity=".05" stroke="#F0CF8E" stroke-opacity=".35" stroke-width=".8" stroke-dasharray="3 3"/>
<circle cx="300" cy="222" r="12" fill="none" stroke="#F0CF8E" stroke-opacity=".5" stroke-width=".8"/>
<circle cx="300" cy="222" r="3.4" fill="#FFE3AA" filter="url(#glow)"/>
<circle cx="372" cy="208" r="22" fill="#F0CF8E" fill-opacity=".05" stroke="#F0CF8E" stroke-opacity=".35" stroke-width=".8" stroke-dasharray="3 3"/>
<circle cx="372" cy="208" r="12" fill="none" stroke="#F0CF8E" stroke-opacity=".5" stroke-width=".8"/>
<circle cx="372" cy="208" r="3.4" fill="#FFE3AA" filter="url(#glow)"/>
<circle cx="118" cy="118" r="22" fill="#F0CF8E" fill-opacity=".05" stroke="#F0CF8E" stroke-opacity=".35" stroke-width=".8" stroke-dasharray="3 3"/>
<circle cx="118" cy="118" r="12" fill="none" stroke="#F0CF8E" stroke-opacity=".5" stroke-width=".8"/>
<circle cx="118" cy="118" r="3.4" fill="#FFE3AA" filter="url(#glow)"/>
<circle cx="180" cy="180" r="22" fill="#F0CF8E" fill-opacity=".05" stroke="#F0CF8E" stroke-opacity=".35" stroke-width=".8" stroke-dasharray="3 3"/>
<circle cx="180" cy="180" r="12" fill="none" stroke="#F0CF8E" stroke-opacity=".5" stroke-width=".8"/>
<circle cx="180" cy="180" r="3.4" fill="#FFE3AA" filter="url(#glow)"/>
<circle cx="226" cy="300" r="22" fill="#F0CF8E" fill-opacity=".05" stroke="#F0CF8E" stroke-opacity=".35" stroke-width=".8" stroke-dasharray="3 3"/>
<circle cx="226" cy="300" r="12" fill="none" stroke="#F0CF8E" stroke-opacity=".5" stroke-width=".8"/>
<circle cx="226" cy="300" r="3.4" fill="#FFE3AA" filter="url(#glow)"/>
<circle cx="60" cy="174" r="22" fill="#F0CF8E" fill-opacity=".05" stroke="#F0CF8E" stroke-opacity=".35" stroke-width=".8" stroke-dasharray="3 3"/>
<circle cx="60" cy="174" r="12" fill="none" stroke="#F0CF8E" stroke-opacity=".5" stroke-width=".8"/>
<circle cx="60" cy="174" r="3.4" fill="#FFE3AA" filter="url(#glow)"/>
<circle cx="170" cy="162" r="22" fill="#F0CF8E" fill-opacity=".05" stroke="#F0CF8E" stroke-opacity=".35" stroke-width=".8" stroke-dasharray="3 3"/>
<circle cx="170" cy="162" r="12" fill="none" stroke="#F0CF8E" stroke-opacity=".5" stroke-width=".8"/>
<circle cx="170" cy="162" r="3.4" fill="#FFE3AA" filter="url(#glow)"/>
<circle cx="290" cy="132" r="22" fill="#F0CF8E" fill-opacity=".05" stroke="#F0CF8E" stroke-opacity=".35" stroke-width=".8" stroke-dasharray="3 3"/>
<circle cx="290" cy="132" r="12" fill="none" stroke="#F0CF8E" stroke-opacity=".5" stroke-width=".8"/>
<circle cx="290" cy="132" r="3.4" fill="#FFE3AA" filter="url(#glow)"/>
<circle cx="370" cy="122" r="22" fill="#F0CF8E" fill-opacity=".05" stroke="#F0CF8E" stroke-opacity=".35" stroke-width=".8" stroke-dasharray="3 3"/>
<circle cx="370" cy="122" r="12" fill="none" stroke="#F0CF8E" stroke-opacity=".5" stroke-width=".8"/>
<circle cx="370" cy="122" r="3.4" fill="#FFE3AA" filter="url(#glow)"/>
<text x="96" y="262" font-size="10" fill="#F0CF8E" font-weight="600">조도 분포</text>
<g transform="translate(360 56)"><circle r="13" fill="none" stroke="#6f89a3"/><path d="M0 -11 L5 5 L0 1 L-5 5 Z" fill="#F0CF8E"/><text y="-17" font-size="9" fill="#9fb3c8" text-anchor="middle">N</text></g>
<g transform="translate(30 388)" font-size="8.5" fill="#8aa0b6"><rect width="20" height="4" fill="#9fb3c8"/><rect x="20" width="20" height="4" fill="none" stroke="#9fb3c8"/><rect x="40" width="20" height="4" fill="#9fb3c8"/><text x="66" y="5">SCALE</text></g>
<rect x="422" y="18" width="200" height="364" rx="4" fill="#0b1d31" stroke="#2a4a6b"/>
<text x="436" y="40" font-size="10" letter-spacing="2" fill="#C8A86A" font-weight="700">ELEVATION</text>
<rect x="468" y="92" width="84" height="248" fill="#0f2238"/>
<rect x="478.0" y="118.0" width="9.6" height="7" fill="#16304b" opacity=".85"/>
<rect x="491.6" y="118.0" width="9.6" height="7" fill="#16304b" opacity=".85"/>
<rect x="505.2" y="118.0" width="9.6" height="7" fill="#16304b" opacity=".85"/>
<rect x="518.8" y="118.0" width="9.6" height="7" fill="#16304b" opacity=".85"/>
<rect x="532.4" y="118.0" width="9.6" height="7" fill="#16304b" opacity=".85"/>
<line x1="468" y1="128.0" x2="552" y2="128.0" stroke="#1c3753" stroke-width=".8"/>
<rect x="478.0" y="130.0" width="9.6" height="7" fill="#16304b" opacity=".85"/>
<rect x="491.6" y="130.0" width="9.6" height="7" fill="#16304b" opacity=".85"/>
<rect x="505.2" y="130.0" width="9.6" height="7" fill="#16304b" opacity=".85"/>
<rect x="518.8" y="130.0" width="9.6" height="7" fill="#16304b" opacity=".85"/>
<rect x="532.4" y="130.0" width="9.6" height="7" fill="#16304b" opacity=".85"/>
<line x1="468" y1="140.0" x2="552" y2="140.0" stroke="#1c3753" stroke-width=".8"/>
<rect x="478.0" y="142.0" width="9.6" height="7" fill="#FFE3AA" opacity="0.52"/>
<rect x="491.6" y="142.0" width="9.6" height="7" fill="#FFE3AA" opacity="0.80"/>
<rect x="505.2" y="142.0" width="9.6" height="7" fill="#16304b" opacity=".85"/>
<rect x="518.8" y="142.0" width="9.6" height="7" fill="#FFE3AA" opacity="0.89"/>
<rect x="532.4" y="142.0" width="9.6" height="7" fill="#16304b" opacity=".85"/>
<line x1="468" y1="152.0" x2="552" y2="152.0" stroke="#1c3753" stroke-width=".8"/>
<rect x="478.0" y="154.0" width="9.6" height="7" fill="#16304b" opacity=".85"/>
<rect x="491.6" y="154.0" width="9.6" height="7" fill="#16304b" opacity=".85"/>
<rect x="505.2" y="154.0" width="9.6" height="7" fill="#FFE3AA" opacity="0.36"/>
<rect x="518.8" y="154.0" width="9.6" height="7" fill="#16304b" opacity=".85"/>
<rect x="532.4" y="154.0" width="9.6" height="7" fill="#FFE3AA" opacity="0.45"/>
<line x1="468" y1="164.0" x2="552" y2="164.0" stroke="#1c3753" stroke-width=".8"/>
<rect x="478.0" y="166.0" width="9.6" height="7" fill="#16304b" opacity=".85"/>
<rect x="491.6" y="166.0" width="9.6" height="7" fill="#FFE3AA" opacity="0.61"/>
<rect x="505.2" y="166.0" width="9.6" height="7" fill="#16304b" opacity=".85"/>
<rect x="518.8" y="166.0" width="9.6" height="7" fill="#16304b" opacity=".85"/>
<rect x="532.4" y="166.0" width="9.6" height="7" fill="#16304b" opacity=".85"/>
<line x1="468" y1="176.0" x2="552" y2="176.0" stroke="#1c3753" stroke-width=".8"/>
<rect x="478.0" y="178.0" width="9.6" height="7" fill="#16304b" opacity=".85"/>
<rect x="491.6" y="178.0" width="9.6" height="7" fill="#16304b" opacity=".85"/>
<rect x="505.2" y="178.0" width="9.6" height="7" fill="#16304b" opacity=".85"/>
<rect x="518.8" y="178.0" width="9.6" height="7" fill="#16304b" opacity=".85"/>
<rect x="532.4" y="178.0" width="9.6" height="7" fill="#16304b" opacity=".85"/>
<line x1="468" y1="188.0" x2="552" y2="188.0" stroke="#1c3753" stroke-width=".8"/>
<rect x="478.0" y="190.0" width="9.6" height="7" fill="#16304b" opacity=".85"/>
<rect x="491.6" y="190.0" width="9.6" height="7" fill="#16304b" opacity=".85"/>
<rect x="505.2" y="190.0" width="9.6" height="7" fill="#16304b" opacity=".85"/>
<rect x="518.8" y="190.0" width="9.6" height="7" fill="#16304b" opacity=".85"/>
<rect x="532.4" y="190.0" width="9.6" height="7" fill="#16304b" opacity=".85"/>
<line x1="468" y1="200.0" x2="552" y2="200.0" stroke="#1c3753" stroke-width=".8"/>
<rect x="478.0" y="202.0" width="9.6" height="7" fill="#16304b" opacity=".85"/>
<rect x="491.6" y="202.0" width="9.6" height="7" fill="#16304b" opacity=".85"/>
<rect x="505.2" y="202.0" width="9.6" height="7" fill="#FFE3AA" opacity="0.77"/>
<rect x="518.8" y="202.0" width="9.6" height="7" fill="#16304b" opacity=".85"/>
<rect x="532.4" y="202.0" width="9.6" height="7" fill="#16304b" opacity=".85"/>
<line x1="468" y1="212.0" x2="552" y2="212.0" stroke="#1c3753" stroke-width=".8"/>
<rect x="478.0" y="214.0" width="9.6" height="7" fill="#16304b" opacity=".85"/>
<rect x="491.6" y="214.0" width="9.6" height="7" fill="#16304b" opacity=".85"/>
<rect x="505.2" y="214.0" width="9.6" height="7" fill="#16304b" opacity=".85"/>
<rect x="518.8" y="214.0" width="9.6" height="7" fill="#FFE3AA" opacity="0.47"/>
<rect x="532.4" y="214.0" width="9.6" height="7" fill="#16304b" opacity=".85"/>
<line x1="468" y1="224.0" x2="552" y2="224.0" stroke="#1c3753" stroke-width=".8"/>
<rect x="478.0" y="226.0" width="9.6" height="7" fill="#16304b" opacity=".85"/>
<rect x="491.6" y="226.0" width="9.6" height="7" fill="#16304b" opacity=".85"/>
<rect x="505.2" y="226.0" width="9.6" height="7" fill="#16304b" opacity=".85"/>
<rect x="518.8" y="226.0" width="9.6" height="7" fill="#FFE3AA" opacity="0.70"/>
<rect x="532.4" y="226.0" width="9.6" height="7" fill="#16304b" opacity=".85"/>
<line x1="468" y1="236.0" x2="552" y2="236.0" stroke="#1c3753" stroke-width=".8"/>
<rect x="478.0" y="238.0" width="9.6" height="7" fill="#16304b" opacity=".85"/>
<rect x="491.6" y="238.0" width="9.6" height="7" fill="#FFE3AA" opacity="0.53"/>
<rect x="505.2" y="238.0" width="9.6" height="7" fill="#16304b" opacity=".85"/>
<rect x="518.8" y="238.0" width="9.6" height="7" fill="#16304b" opacity=".85"/>
<rect x="532.4" y="238.0" width="9.6" height="7" fill="#FFE3AA" opacity="0.49"/>
<line x1="468" y1="248.0" x2="552" y2="248.0" stroke="#1c3753" stroke-width=".8"/>
<rect x="478.0" y="250.0" width="9.6" height="7" fill="#FFE3AA" opacity="0.38"/>
<rect x="491.6" y="250.0" width="9.6" height="7" fill="#16304b" opacity=".85"/>
<rect x="505.2" y="250.0" width="9.6" height="7" fill="#FFE3AA" opacity="0.66"/>
<rect x="518.8" y="250.0" width="9.6" height="7" fill="#16304b" opacity=".85"/>
<rect x="532.4" y="250.0" width="9.6" height="7" fill="#16304b" opacity=".85"/>
<line x1="468" y1="260.0" x2="552" y2="260.0" stroke="#1c3753" stroke-width=".8"/>
<rect x="478.0" y="262.0" width="9.6" height="7" fill="#16304b" opacity=".85"/>
<rect x="491.6" y="262.0" width="9.6" height="7" fill="#FFE3AA" opacity="0.70"/>
<rect x="505.2" y="262.0" width="9.6" height="7" fill="#FFE3AA" opacity="0.58"/>
<rect x="518.8" y="262.0" width="9.6" height="7" fill="#16304b" opacity=".85"/>
<rect x="532.4" y="262.0" width="9.6" height="7" fill="#16304b" opacity=".85"/>
<line x1="468" y1="272.0" x2="552" y2="272.0" stroke="#1c3753" stroke-width=".8"/>
<rect x="478.0" y="274.0" width="9.6" height="7" fill="#16304b" opacity=".85"/>
<rect x="491.6" y="274.0" width="9.6" height="7" fill="#16304b" opacity=".85"/>
<rect x="505.2" y="274.0" width="9.6" height="7" fill="#16304b" opacity=".85"/>
<rect x="518.8" y="274.0" width="9.6" height="7" fill="#16304b" opacity=".85"/>
<rect x="532.4" y="274.0" width="9.6" height="7" fill="#16304b" opacity=".85"/>
<line x1="468" y1="284.0" x2="552" y2="284.0" stroke="#1c3753" stroke-width=".8"/>
<rect x="478.0" y="286.0" width="9.6" height="7" fill="#16304b" opacity=".85"/>
<rect x="491.6" y="286.0" width="9.6" height="7" fill="#16304b" opacity=".85"/>
<rect x="505.2" y="286.0" width="9.6" height="7" fill="#16304b" opacity=".85"/>
<rect x="518.8" y="286.0" width="9.6" height="7" fill="#FFE3AA" opacity="0.89"/>
<rect x="532.4" y="286.0" width="9.6" height="7" fill="#16304b" opacity=".85"/>
<line x1="468" y1="296.0" x2="552" y2="296.0" stroke="#1c3753" stroke-width=".8"/>
<rect x="478.0" y="298.0" width="9.6" height="7" fill="#16304b" opacity=".85"/>
<rect x="491.6" y="298.0" width="9.6" height="7" fill="#16304b" opacity=".85"/>
<rect x="505.2" y="298.0" width="9.6" height="7" fill="#16304b" opacity=".85"/>
<rect x="518.8" y="298.0" width="9.6" height="7" fill="#16304b" opacity=".85"/>
<rect x="532.4" y="298.0" width="9.6" height="7" fill="#FFE3AA" opacity="0.40"/>
<line x1="468" y1="308.0" x2="552" y2="308.0" stroke="#1c3753" stroke-width=".8"/>
<rect x="478.0" y="310.0" width="9.6" height="7" fill="#16304b" opacity=".85"/>
<rect x="491.6" y="310.0" width="9.6" height="7" fill="#16304b" opacity=".85"/>
<rect x="505.2" y="310.0" width="9.6" height="7" fill="#16304b" opacity=".85"/>
<rect x="518.8" y="310.0" width="9.6" height="7" fill="#16304b" opacity=".85"/>
<rect x="532.4" y="310.0" width="9.6" height="7" fill="#16304b" opacity=".85"/>
<line x1="468" y1="320.0" x2="552" y2="320.0" stroke="#1c3753" stroke-width=".8"/>
<rect x="478.0" y="322.0" width="9.6" height="7" fill="#16304b" opacity=".85"/>
<rect x="491.6" y="322.0" width="9.6" height="7" fill="#16304b" opacity=".85"/>
<rect x="505.2" y="322.0" width="9.6" height="7" fill="#16304b" opacity=".85"/>
<rect x="518.8" y="322.0" width="9.6" height="7" fill="#16304b" opacity=".85"/>
<rect x="532.4" y="322.0" width="9.6" height="7" fill="#16304b" opacity=".85"/>
<line x1="468" y1="332.0" x2="552" y2="332.0" stroke="#1c3753" stroke-width=".8"/>
<rect x="468" y="92" width="84" height="87" fill="url(#washDown)"/>
<rect x="468" y="250" width="84" height="90" fill="url(#washUp)"/>
<line x1="470.5" y1="340" x2="470.5" y2="92" stroke="#F0CF8E" stroke-width="2.6" filter="url(#glow)"/>
<line x1="549.5" y1="340" x2="549.5" y2="92" stroke="#F0CF8E" stroke-width="2.6" filter="url(#glow)"/>
<rect x="483.1" y="58" width="53.8" height="34" fill="#0b1a2b"/>
<rect x="483.1" y="58" width="53.8" height="34" fill="none" stroke="#F0CF8E" stroke-width="2" filter="url(#glow)"/>
<line x1="468" y1="93" x2="552" y2="93" stroke="#F0CF8E" stroke-width="3" filter="url(#glow)"/>
<line x1="496.6" y1="58" x2="496.6" y2="92" stroke="#F0CF8E" stroke-width="1.2" opacity=".75"/>
<line x1="510.0" y1="58" x2="510.0" y2="92" stroke="#F0CF8E" stroke-width="1.2" opacity=".75"/>
<line x1="523.4" y1="58" x2="523.4" y2="92" stroke="#F0CF8E" stroke-width="1.2" opacity=".75"/>
<polygon points="472,340 480,340 494,250 458,250" fill="url(#beamUp)" opacity=".7"/>
<polygon points="540,340 548,340 562,250 526,250" fill="url(#beamUp)" opacity=".7"/>
<line x1="436" y1="340" x2="610" y2="340" stroke="#6f89a3" stroke-width="1"/>
<g stroke="#8aa0b6" stroke-width=".9"><line x1="580" y1="58" x2="580" y2="340"/><line x1="574" y1="58" x2="586" y2="58"/><line x1="574" y1="340" x2="586" y2="340"/></g>
<circle cx="552" cy="70" r="2.5" fill="#FFE3AA"/><line x1="552" y1="70" x2="570" y2="56" stroke="#C8A86A" stroke-width=".9"/>
<rect x="566" y="42" width="72" height="17" rx="3" fill="#0a1a2d" stroke="#C8A86A" stroke-width=".8"/><text x="572" y="54" font-size="10" fill="#FFE3AA">크라운 투광</text>
<circle cx="552" cy="180" r="2.5" fill="#FFE3AA"/><line x1="552" y1="180" x2="570" y2="166" stroke="#C8A86A" stroke-width=".9"/>
<rect x="566" y="152" width="72" height="17" rx="3" fill="#0a1a2d" stroke="#C8A86A" stroke-width=".8"/><text x="572" y="164" font-size="10" fill="#FFE3AA">코너 라인바</text>
<circle cx="548" cy="318" r="2.5" fill="#FFE3AA"/><line x1="548" y1="318" x2="566" y2="304" stroke="#C8A86A" stroke-width=".9"/>
<rect x="562" y="290" width="82" height="17" rx="3" fill="#0a1a2d" stroke="#C8A86A" stroke-width=".8"/><text x="568" y="302" font-size="10" fill="#FFE3AA">지중 업라이트</text>
<rect x="436" y="352" width="172" height="22" fill="#0a1a2d" stroke="#C8A86A" stroke-width=".9"/><text x="444" y="367" font-size="10.5" font-weight="700" fill="#F0CF8E">경관조명 설계도</text><text x="600" y="367" font-size="8" fill="#8aa0b6" text-anchor="end">PLAN · ELEV.</text>
</svg>
