<svg xmlns="http://www.w3.org/2000/svg" viewBox="0 0 1600 1000" preserveAspectRatio="xMidYMid slice">
  <defs>
    <linearGradient id="wall" x1="0" y1="0" x2="0" y2="1"><stop offset="0" stop-color="#12345e"/><stop offset="1" stop-color="#1f83e0"/></linearGradient>
    <linearGradient id="chrome" x1="0" y1="0" x2="1" y2="0"><stop offset="0" stop-color="#b8c6c2"/><stop offset=".35" stop-color="#eef3f1"/><stop offset=".55" stop-color="#cdd8d4"/><stop offset="1" stop-color="#9fb0ab"/></linearGradient>
    <linearGradient id="water" x1="0" y1="0" x2="0" y2="1"><stop offset="0" stop-color="#bcdcfb" stop-opacity=".95"/><stop offset="1" stop-color="#5aa8f0" stop-opacity=".8"/></linearGradient>
    <linearGradient id="counter" x1="0" y1="0" x2="0" y2="1"><stop offset="0" stop-color="#f4fafb"/><stop offset="1" stop-color="#dfeaf2"/></linearGradient>
  </defs>
  <rect width="1600" height="1000" fill="url(#wall)"/>
  <circle cx="1380" cy="120" r="260" fill="#5aa8f0" opacity=".14"/>
  <circle cx="180" cy="820" r="200" fill="#0c2547" opacity=".25"/>
  <!-- 타일 라인 -->
  <g stroke="#ffffff" stroke-opacity=".05" stroke-width="3">
    <path d="M0 250h1600M0 500h1600M0 750h1600"/>
    <path d="M400 0v1000M800 0v1000M1200 0v1000"/>
  </g>
  <!-- 카운터 -->
  <rect x="0" y="780" width="1600" height="220" fill="url(#counter)"/>
  <rect x="0" y="765" width="1600" height="18" fill="#c9dae8"/>
  <!-- 세면대 -->
  <rect x="560" y="700" width="580" height="95" rx="46" fill="#ffffff" stroke="#dbe6ec" stroke-width="4"/>
  <ellipse cx="850" cy="748" rx="205" ry="30" fill="#e7f4f8"/>
  <ellipse cx="850" cy="752" rx="150" ry="20" fill="url(#water)"/>
  <!-- 수전 (구즈넥) -->
  <rect x="1005" y="415" width="64" height="40" rx="12" fill="url(#chrome)"/>
  <path d="M1037 455 C1037 305 850 305 850 600" fill="none" stroke="url(#chrome)" stroke-width="34" stroke-linecap="round"/>
  <rect x="828" y="592" width="44" height="30" rx="10" fill="url(#chrome)"/>
  <!-- 물줄기 -->
  <rect x="836" y="620" width="28" height="118" rx="14" fill="url(#water)"/>
  <!-- P트랩 배관 -->
  <path d="M820 795 L820 880 C820 928 930 928 930 880 L930 820" fill="none" stroke="url(#chrome)" stroke-width="34" stroke-linecap="round"/>
  <!-- 화분 -->
  <rect x="220" y="670" width="120" height="98" rx="14" fill="#e6f0f4" stroke="#d0dee4" stroke-width="3"/>
  <path d="M280 670c-36-22-56-64-46-106 32 8 60 40 53 85" fill="#1566c2"/>
  <path d="M280 670c28-25 39-70 21-109-28 14-46 49-35 92" fill="#1f83e0"/>
  <path d="M280 670c-7-39 11-77 42-95 11 32-3 70-31 92" fill="#5aa8f0"/>
  <!-- 반짝임 -->
  <path d="M1220 560 l12 28 28 12 -28 12 -12 28 -12 -28 -28 -12 28 -12 z" fill="#ffffff" opacity=".8"/>
  <path d="M1310 660 l8 18 18 8 -18 8 -8 18 -8 -18 -18 -8 18 -8 z" fill="#ffffff" opacity=".55"/>
</svg>
